HIERARCHY
ROOT Hips
{
	OFFSET 0.00000 0.00000 0.00000
	CHANNELS 6 Xposition Yposition Zposition Zrotation Yrotation Xrotation 
	JOINT LHipJoint
	{
		OFFSET 0 0 0
		CHANNELS 3 Zrotation Yrotation Xrotation
		JOINT LeftUpLeg
		{
			OFFSET 1.85590 -1.73949 0.84976
			CHANNELS 3 Zrotation Yrotation Xrotation
			JOINT LeftLeg
			{
				OFFSET 2.36836 -6.50702 0.00000
				CHANNELS 3 Zrotation Yrotation Xrotation
				JOINT LeftFoot
				{
					OFFSET 2.53268 -6.95849 0.00000
					CHANNELS 3 Zrotation Yrotation Xrotation
					JOINT LeftToeBase
					{
						OFFSET 0.15935 -0.43781 1.94506
						CHANNELS 3 Zrotation Yrotation Xrotation
						End Site
						{
							OFFSET 0.00000 -0.00000 1.00661
						}
					}
				}
			}
		}
	}
	JOINT RHipJoint
	{
		OFFSET 0 0 0
		CHANNELS 3 Zrotation Yrotation Xrotation
		JOINT RightUpLeg
		{
			OFFSET -1.68297 -1.73949 0.84976
			CHANNELS 3 Zrotation Yrotation Xrotation
			JOINT RightLeg
			{
				OFFSET -2.44709 -6.72334 0.00000
				CHANNELS 3 Zrotation Yrotation Xrotation
				JOINT RightFoot
				{
					OFFSET -2.43843 -6.69953 0.00000
					CHANNELS 3 Zrotation Yrotation Xrotation
					JOINT RightToeBase
					{
						OFFSET -0.20854 -0.57295 2.02172
						CHANNELS 3 Zrotation Yrotation Xrotation
						End Site
						{
							OFFSET -0.00000 -0.00000 1.05594
						}
					}
				}
			}
		}
	}
	JOINT LowerBack
	{
		OFFSET 0 0 0
		CHANNELS 3 Zrotation Yrotation Xrotation
		JOINT Spine
		{
			OFFSET -0.01560 2.23971 -0.03712
			CHANNELS 3 Zrotation Yrotation Xrotation
			JOINT Spine1
			{
				OFFSET 0.05490 2.19225 -0.19086
				CHANNELS 3 Zrotation Yrotation Xrotation
				JOINT Neck
				{
					OFFSET 0 0 0
					CHANNELS 3 Zrotation Yrotation Xrotation
					JOINT Neck1
					{
						OFFSET -0.12403 1.43168 0.27585
						CHANNELS 3 Zrotation Yrotation Xrotation
						JOINT Head
						{
							OFFSET 0.17855 1.46173 -0.32578
							CHANNELS 3 Zrotation Yrotation Xrotation
							End Site
							{
								OFFSET 0.07217 1.51590 -0.14537
							}
						}
					}
				}
				JOINT LeftShoulder
				{
					OFFSET 0 0 0
					CHANNELS 3 Zrotation Yrotation Xrotation
					JOINT LeftArm
					{
						OFFSET 3.27650 0.85634 0.05396
						CHANNELS 3 Zrotation Yrotation Xrotation
						JOINT LeftForeArm
						{
							OFFSET 4.96755 -0.00000 0.00000
							CHANNELS 3 Zrotation Yrotation Xrotation
							JOINT LeftHand
							{
								OFFSET 3.35751 -0.00000 0.00000
								CHANNELS 3 Zrotation Yrotation Xrotation
								JOINT LeftFingerBase
								{
									OFFSET 0 0 0
									CHANNELS 3 Zrotation Yrotation Xrotation
									JOINT LeftHandIndex1
									{
										OFFSET 0.79697 -0.00000 0.00000
										CHANNELS 3 Zrotation Yrotation Xrotation
										End Site
										{
											OFFSET 0.64254 -0.00000 0.00000
										}
									}
								}
								JOINT LThumb
								{
									OFFSET 0 0 0
									CHANNELS 3 Zrotation Yrotation Xrotation
									End Site
									{
										OFFSET 0.65235 -0.00000 0.65235
									}
								}
							}
						}
					}
				}
				JOINT RightShoulder
				{
					OFFSET 0 0 0
					CHANNELS 3 Zrotation Yrotation Xrotation
					JOINT RightArm
					{
						OFFSET -3.24434 1.02034 0.34688
						CHANNELS 3 Zrotation Yrotation Xrotation
						JOINT RightForeArm
						{
							OFFSET -5.21859 -0.00000 -0.00000
							CHANNELS 3 Zrotation Yrotation Xrotation
							JOINT RightHand
							{
								OFFSET -3.36504 -0.00000 0.00000
								CHANNELS 3 Zrotation Yrotation Xrotation
								JOINT RightFingerBase
								{
									OFFSET 0 0 0
									CHANNELS 3 Zrotation Yrotation Xrotation
									JOINT RightHandIndex1
									{
										OFFSET -0.62044 -0.00000 0.00000
										CHANNELS 3 Zrotation Yrotation Xrotation
										End Site
										{
											OFFSET -0.50022 -0.00000 0.00000
										}
									}
								}
								JOINT RThumb
								{
									OFFSET 0 0 0
									CHANNELS 3 Zrotation Yrotation Xrotation
									End Site
									{
										OFFSET -0.50786 -0.00000 0.50786
									}
								}
							}
						}
					}
				}
			}
		}
	}
}
MOTION
Frames: 8
Frame Time: .0083333
8.2497 16.249 -31.1331 0 0 0 0 0 0 -21 0 0 0 0 0 0 0 0 0 0 0 0 0 0 21 0 0 0 0 0 0 0 0 0 0 0 0 0 0 0 0 0 0 0 0 0 0 -16 0 0 21 0 0 11 0 0 0 -8 0 0 0 0 0 0 0 0 0 0 0 0 0 0 0 0 0 0 0 0 8 0 0 0 0 0 0 0 0 0 0 0 0 0 0 0 0 0
8.2497 16.2490 -31.1331 -1.4438 6.7271 3.6909 0.0000 0.0000 0.0000 -13.3517 8.6102 -16.0044 11.1166 17.9917 63.1597 -0.2799 9.9363 -7.2997 0.0233 0.9865 2.7116 0.0000 0.0000 0.0000 26.9315 6.7121 -18.3121 -2.1865 -9.2441 26.5620 -0.5005 4.1467 -12.5940 -0.2012 2.8885 -7.9685 -2.1826 -1.8561 -5.8977 3.1127 -2.4282 -0.2936 4.2404 -1.2652 3.2322 -13.4052 -5.4984 -22.1047 13.8940 -6.7097 20.3828 6.3001 -2.4603 11.2347 0.0000 -0.0000 0.0000 -85.2518 10.3667 41.9742 12.9518 -21.2166 -2.4358 -0.0000 0.0000 -1.3361 11.9601 -18.8595 -3.9171 -7.1250 0.0000 -0.0000 -10.5478 10.9818 8.4943 0.0000 -0.0000 0.0000 77.5980 -14.2865 44.1150 -18.3898 28.6534 -4.7347 0.0000 -0.0000 -17.9246 -32.9869 -24.5160 15.0741 7.1250 -0.0000 -0.0000 -4.0869 -58.4667 1.3474
8.2378 16.2609 -31.0244 -1.6253 6.2694 3.7098 0.0000 0.0000 0.0000 -13.2990 8.3799 -17.3362 11.3757 18.1141 63.9956 -0.2365 9.5044 -7.8386 0.1676 2.6376 7.2713 0.0000 0.0000 0.0000 27.2523 6.9602 -17.5897 -2.1345 -9.1409 26.2369 -0.5294 4.3435 -12.9515 -0.1404 2.4147 -6.6531 -2.0070 -1.5672 -5.8326 3.1328 -2.0546 -0.3215 4.1978 -1.0742 3.1268 -13.4567 -5.6244 -22.0656 13.9801 -6.9107 20.4850 6.3129 -2.5469 11.3046 0.0000 -0.0000 0.0000 -84.9708 10.9588 41.9177 13.2509 -21.6537 -2.5451 -0.0000 0.0000 -2.2926 12.5494 -19.0856 -4.1630 -7.1250 0.0000 -0.0000 -10.1691 10.6991 8.2387 0.0000 -0.0000 0.0000 77.3151 -13.8746 44.9755 -18.6239 28.9487 -4.8475 0.0000 -0.0000 -18.4514 -33.8926 -24.3795 15.4986 7.1250 -0.0000 -0.0000 -5.1845 -58.5374 1.7192
8.2272 16.2651 -30.9194 -1.9656 5.9448 3.6351 0.0000 0.0000 0.0000 -12.9966 8.0948 -18.5923 11.5770 18.2061 64.6416 -0.2092 9.4462 -8.6831 0.0881 1.9148 5.2702 0.0000 0.0000 0.0000 27.7658 7.0524 -16.8083 -2.0776 -9.0260 25.8766 -0.5802 4.6324 -13.5615 -0.0500 1.4429 -3.9682 -1.7115 -1.3606 -5.8777 3.2244 -1.8036 -0.1901 4.1466 -0.9491 3.2596 -12.9862 -5.6427 -22.1636 13.5066 -6.9719 20.5912 6.0385 -2.5876 11.3320 -0.0000 0.0000 0.0000 -84.7238 11.4142 41.8605 13.6208 -22.1900 -2.6832 -0.0000 0.0000 -3.4131 13.1360 -19.4966 -4.4536 -7.1250 0.0000 -0.0000 -9.7979 10.2282 8.0238 -0.0000 0.0000 0.0000 77.0136 -12.9549 45.2704 -18.7304 29.0823 -4.8991 0.0000 -0.0000 -17.9860 -32.6190 -25.8865 15.6111 7.1250 -0.0000 -0.0000 -3.3301 -59.8977 1.2116
8.2167 16.2657 -30.8166 -2.1874 5.6111 3.5029 0.0000 0.0000 0.0000 -12.8218 7.8525 -19.7648 11.7484 18.2823 65.1891 -0.1518 9.0865 -9.6315 0.0196 0.9043 2.4856 0.0000 0.0000 0.0000 28.1601 7.0522 -16.0350 -2.0325 -8.9334 25.5871 -0.6244 4.7579 -14.0727 -0.0632 1.6214 -4.4605 -1.5808 -1.2051 -5.7299 3.3798 -1.6119 -0.0994 4.2540 -0.8541 3.2550 -13.1173 -5.6650 -22.1730 13.3608 -6.9179 20.6052 6.0139 -2.5905 11.3284 -0.0000 0.0000 0.0000 -84.8013 11.8245 41.3860 13.8872 -22.5732 -2.7847 -0.0000 0.0000 -4.2428 13.5360 -19.5553 -4.6070 -7.1250 0.0000 -0.0000 -9.5413 10.1275 7.8271 -0.0000 0.0000 0.0000 76.4705 -12.0097 45.7390 -18.7749 29.1380 -4.9208 0.0000 -0.0000 -17.6524 -31.6015 -24.3619 14.2402 7.1250 -0.0000 -0.0000 -2.5072 -57.9599 0.7955
8.2038 16.2676 -30.7190 -2.3602 5.2437 3.5105 0.0000 0.0000 0.0000 -12.7683 7.6077 -21.1157 11.8813 18.3400 65.6122 -0.1702 9.0949 -9.1174 0.1230 2.2608 6.2271 0.0000 0.0000 0.0000 28.4889 7.0803 -15.5330 -2.0100 -8.8868 25.4419 -0.6335 4.7329 -14.1768 -0.1615 2.5895 -7.1378 -1.4544 -1.0304 -5.6021 3.4706 -1.3897 -0.0930 4.2982 -0.7409 3.1699 -13.6062 -5.7539 -22.0278 13.6526 -6.9568 20.4637 6.2004 -2.6190 11.2872 0.0000 0.0000 0.0000 -84.8523 12.1601 40.6516 14.0200 -22.7633 -2.8358 -0.0000 0.0000 -4.8474 13.4986 -19.5132 -4.5844 -7.1250 0.0000 -0.0000 -9.5644 10.1739 7.8375 0.0000 0.0000 0.0000 75.9994 -11.3042 46.5584 -18.9077 29.3038 -4.9856 0.0000 -0.0000 -17.9190 -33.5078 -16.9807 10.9437 7.1250 -0.0000 -0.0000 -5.6379 -50.0099 0.6982
8.1988 16.2690 -30.6224 -2.2610 5.0348 3.6899 0.0000 0.0000 0.0000 -13.1004 7.0865 -22.5423 11.9647 18.3757 65.8770 -0.3356 10.5773 -6.8666 1.0945 6.6484 18.6778 0.0000 0.0000 0.0000 28.4669 7.0217 -15.3155 -2.0059 -8.8783 25.4153 -0.6282 5.0487 -14.1125 -0.1687 2.6459 -7.2944 -1.4373 -0.8849 -5.6923 3.3497 -1.1925 -0.1048 4.1780 -0.6413 3.1880 -13.6357 -5.8457 -21.8170 13.7666 -7.1156 20.2645 6.2137 -2.6874 11.2060 -0.0000 0.0000 0.0000 -84.5857 12.5223 39.9887 14.1986 -23.0179 -2.9053 -0.0000 0.0000 -5.6781 13.0300 -19.9483 -4.5144 -7.1250 0.0000 -0.0000 -9.8764 9.7862 8.1797 -0.0000 0.0000 0.0000 75.8645 -10.6058 46.9710 -18.9892 29.4053 -5.0256 0.0000 -0.0000 -17.7958 -29.9379 -21.7692 12.0564 7.1250 -0.0000 -0.0000 -1.2370 -54.7177 0.2953
8.1966 16.2710 -30.5171 -1.8741 4.8327 3.8956 0.0000 0.0000 0.0000 -13.7505 6.5378 -23.8160 11.9809 18.3826 65.9282 0.0299 7.9803 -11.9733 0.0172 -0.8478 -2.3302 0.0000 0.0000 0.0000 28.1041 7.1032 -15.0543 -2.0119 -8.8909 25.4546 -0.6354 5.3518 -14.1963 -0.1066 2.1057 -5.7980 -1.6533 -0.7033 -5.8472 3.0990 -0.9273 -0.1179 4.0606 -0.5108 3.2381 -13.5627 -5.9832 -21.5814 13.8247 -7.3615 20.0532 6.1719 -2.7948 11.1235 0.0000 0.0000 0.0000 -84.0313 13.0688 40.0231 14.6281 -23.6254 -3.0753 -0.0000 0.0000 -7.0986 12.7731 -20.4414 -4.5270 -7.1250 0.0000 -0.0000 -10.0527 9.3194 8.4263 0.0000 0.0000 0.0000 75.9832 -9.8635 46.8250 -18.9479 29.3539 -5.0053 0.0000 -0.0000 -17.3847 -28.3614 -23.7541 12.2680 7.1250 -0.0000 -0.0000 0.9828 -56.5479 -0.2783
